HIERARCHY
ROOT Hips
{
	OFFSET -0.001795 -0.223333 0.028219
	CHANNELS 6 Xposition Yposition Zposition Zrotation Yrotation Xrotation 
	JOINT LeftUpLeg
	{
		OFFSET 0.069520 -0.091406 -0.006815
		CHANNELS 3 Zrotation Yrotation Xrotation
		JOINT LeftLeg
		{
			OFFSET 0.034277 -0.375199 -0.004496
			CHANNELS 3 Zrotation Yrotation Xrotation
			JOINT LeftFoot
			{
				OFFSET -0.013596 -0.397961 -0.043693
				CHANNELS 3 Zrotation Yrotation Xrotation
				JOINT LeftToe
				{
					OFFSET 0.026358 -0.055791 0.119288
					CHANNELS 3 Zrotation Yrotation Xrotation
					End Site
					{
						OFFSET 0.000000 0.000000 0.000000
					}
				}
			}
		}
	}
	JOINT RightUpLeg
	{
		OFFSET -0.067670 -0.090522 -0.004320
		CHANNELS 3 Zrotation Yrotation Xrotation
		JOINT RightLeg
		{
			OFFSET -0.038290 -0.382569 -0.008850
			CHANNELS 3 Zrotation Yrotation Xrotation
			JOINT RightFoot
			{
				OFFSET 0.015774 -0.398415 -0.042312
				CHANNELS 3 Zrotation Yrotation Xrotation
				JOINT RightToe
				{
					OFFSET -0.025372 -0.048144 0.123348
					CHANNELS 3 Zrotation Yrotation Xrotation
					End Site
					{
						OFFSET 0.000000 0.000000 0.000000
					}
				}
			}
		}
	}
	JOINT Spine
	{
		OFFSET -0.002533 0.108963 -0.026696
		CHANNELS 3 Zrotation Yrotation Xrotation
		JOINT Spine1
		{
			OFFSET 0.005487 0.135180 0.001092
			CHANNELS 3 Zrotation Yrotation Xrotation
			JOINT Spine2
			{
				OFFSET 0.001457 0.052922 0.025425
				CHANNELS 3 Zrotation Yrotation Xrotation
				JOINT Neck
				{
					OFFSET -0.002778 0.213870 -0.042857
					CHANNELS 3 Zrotation Yrotation Xrotation
					JOINT Head
					{
						OFFSET 0.005152 0.064970 0.051349
						CHANNELS 3 Zrotation Yrotation Xrotation
						End Site
						{
							OFFSET 0.000000 0.000000 0.000000
						}
					}
				}
				JOINT LeftShoulder
				{
					OFFSET 0.078845 0.121749 -0.034090
					CHANNELS 3 Zrotation Yrotation Xrotation
					JOINT LeftArm
					{
						OFFSET 0.090977 0.030469 -0.008868
						CHANNELS 3 Zrotation Yrotation Xrotation
						JOINT LeftForeArm
						{
							OFFSET 0.259612 -0.012772 -0.027456
							CHANNELS 3 Zrotation Yrotation Xrotation
							JOINT LeftHand
							{
								OFFSET 0.249234 0.008986 -0.001171
								CHANNELS 3 Zrotation Yrotation Xrotation
								End Site
								{
									OFFSET 0.000000 0.000000 0.000000
								}
							}
						}
					}
				}
				JOINT RightShoulder
				{
					OFFSET -0.081759 0.118833 -0.038615
					CHANNELS 3 Zrotation Yrotation Xrotation
					JOINT RightArm
					{
						OFFSET -0.096012 0.032551 -0.009143
						CHANNELS 3 Zrotation Yrotation Xrotation
						JOINT RightForeArm
						{
							OFFSET -0.253742 -0.013329 -0.021401
							CHANNELS 3 Zrotation Yrotation Xrotation
							JOINT RightHand
							{
								OFFSET -0.255298 0.007772 -0.005559
								CHANNELS 3 Zrotation Yrotation Xrotation
								End Site
								{
									OFFSET 0.000000 0.000000 0.000000
								}
							}
						}
					}
				}
			}
		}
	}
}
MOTION
Frames: 8
Frame Time: 0.050000
0.925578 0.951610 -0.504511 -0.520517 46.154858 3.092080 15.192258 -2.985804 -24.367023 -43.257460 1.927261 27.954168 26.278188 37.448695 34.137849 0.000000 0.000000 0.000000 -5.125750 -2.438652 -26.896640 7.394840 -7.271676 27.896401 -3.930983 -7.340944 12.405715 0.000000 0.000000 0.000000 5.907874 -1.565805 10.126943 -1.379911 1.477821 -8.819528 -6.878819 9.830153 4.456082 15.709663 -4.831061 -16.494696 0.000000 0.000000 0.000000 -5.854655 -23.305479 3.685391 -39.231540 -29.622038 4.390407 -53.693047 -57.286335 20.924329 0.000000 0.000000 0.000000 7.371834 3.895055 5.039817 38.729913 46.915892 14.251022 155.033775 77.181834 172.532527 0.000000 0.000000 0.000000 
0.922543 0.900496 -0.509489 -3.753321 45.878024 -0.725435 13.269530 -2.564730 -21.769747 -40.814590 2.081781 30.811059 30.350794 44.810667 17.640721 0.000000 0.000000 0.000000 -4.876928 -3.103779 -30.444568 8.815116 -11.547415 37.649539 -3.654593 -8.253702 1.430463 0.000000 0.000000 0.000000 6.467098 -1.678647 10.474597 -1.801524 1.643061 -8.791735 -6.163894 10.664084 4.291223 15.012972 -4.118862 -16.941114 0.000000 0.000000 0.000000 -4.251778 -19.526831 2.971094 -33.696009 -32.726760 3.924055 -49.883802 -66.582894 23.149925 0.000000 0.000000 0.000000 4.765386 2.772676 3.420826 26.682762 43.132981 8.240694 -171.434796 73.815868 -143.214618 0.000000 0.000000 0.000000 
0.924387 0.867126 -0.514040 -5.835083 44.665098 -2.616602 13.518102 -2.838292 -24.547830 -42.399537 3.481719 35.370393 34.671599 51.848683 13.322837 0.000000 0.000000 0.000000 -4.989364 -4.370517 -35.880878 7.792425 -13.912973 47.067127 -3.164896 -7.135526 -0.714843 0.000000 0.000000 0.000000 7.010998 -1.964826 11.657996 -3.053990 2.071416 -9.113873 -5.635069 11.620421 4.318749 13.429498 -2.624984 -18.144442 0.000000 0.000000 0.000000 -3.247223 -16.443137 2.413109 -26.563655 -32.889765 2.669803 -30.444125 -72.533861 12.173685 0.000000 0.000000 0.000000 0.466181 1.319867 1.198376 14.819478 36.562549 3.211335 -157.286100 70.490971 -121.477667 0.000000 0.000000 0.000000 
0.941718 0.882028 -0.515268 -5.972986 44.310742 -2.199636 13.070404 -3.021959 -25.769410 -42.461572 3.802862 36.283447 30.977026 47.626228 14.380809 0.000000 0.000000 0.000000 -5.619212 -4.296054 -34.751891 7.879237 -12.351751 43.223987 -2.408234 -5.480238 1.915448 0.000000 0.000000 0.000000 7.511089 -1.956709 11.162418 -3.752783 2.307927 -9.793667 -6.552294 13.255961 5.106559 13.191173 -2.337639 -17.993386 0.000000 0.000000 0.000000 -3.536711 -14.134960 1.406663 -24.501098 -26.403105 1.940692 -8.706022 -68.165536 -3.534084 0.000000 0.000000 0.000000 -4.407107 0.202089 -0.796352 8.775395 27.321616 0.830409 -159.683436 72.331816 -123.797028 0.000000 0.000000 0.000000 
0.974028 0.922822 -0.524271 -4.533337 43.529452 1.186362 9.489129 -2.962906 -24.464851 -35.690796 2.246901 32.654564 24.430158 39.680375 14.665170 0.000000 0.000000 0.000000 -4.894516 -2.972132 -31.406965 6.915360 -7.561352 31.649312 -3.452662 -7.203220 6.992922 0.000000 0.000000 0.000000 7.754951 -1.554213 8.549980 -5.333697 2.739053 -10.914379 -7.263127 15.240667 5.227070 13.551163 -2.994457 -16.356762 0.000000 0.000000 0.000000 -4.356086 -9.761969 -0.571321 -26.034729 -18.441023 1.383572 -5.475668 -59.701194 -4.883756 0.000000 0.000000 0.000000 -8.487480 -0.780740 -2.357297 5.796369 19.400394 -0.105254 -163.492758 76.515357 -129.356203 0.000000 0.000000 0.000000 
0.987101 0.966903 -0.561736 -2.637092 42.723065 4.843387 5.105757 -3.064778 -23.569261 -26.588980 0.833574 28.444565 17.464423 31.420251 17.760712 0.000000 0.000000 0.000000 -4.342803 -2.131357 -29.254493 6.762325 -5.849816 26.305926 -9.515429 -17.560635 13.024586 0.000000 0.000000 0.000000 7.828566 -1.259556 6.312203 -7.389153 3.206246 -12.486655 -6.991536 16.385300 5.404173 11.256604 -2.635515 -13.241974 0.000000 0.000000 0.000000 -5.396555 -6.982635 -2.130138 -25.788186 -11.382612 0.526197 -1.102474 -47.851022 -4.943474 0.000000 0.000000 0.000000 -12.566958 -1.327016 -3.677114 3.946332 16.693688 -0.250990 -89.920005 81.791976 -55.744454 0.000000 0.000000 0.000000 
0.997298 0.999048 -0.567923 -1.524101 42.535039 6.522822 2.136810 -2.830772 -21.381283 -19.591411 0.046614 22.284619 12.119702 26.043602 24.569238 0.000000 0.000000 0.000000 -4.219149 -1.714407 -27.469030 12.110503 -10.599229 31.255984 -13.793725 -23.171506 21.424649 0.000000 0.000000 0.000000 7.666593 -1.101205 5.250709 -7.995454 3.319810 -12.761317 -7.510180 17.060587 4.734810 9.949544 -2.589734 -11.236947 0.000000 0.000000 0.000000 -3.802463 -4.587361 -1.996599 -25.419136 -7.969826 -0.196840 1.795276 -33.650706 -3.611379 0.000000 0.000000 0.000000 -13.710158 -1.086163 -3.853596 0.298344 15.202839 -0.301699 -49.978488 66.322500 -14.283820 0.000000 0.000000 0.000000 
0.997255 1.010048 -0.568631 -1.145662 42.469447 6.679202 0.418903 -2.313116 -18.359330 -15.875114 -0.128159 15.900590 11.780150 25.719613 29.944575 0.000000 0.000000 0.000000 -3.179285 -0.814079 -23.696863 15.898929 -16.088607 36.856046 -9.531520 -17.653513 20.504158 0.000000 0.000000 0.000000 7.234203 -0.935141 4.493183 -7.655643 3.244860 -12.684411 -7.721376 17.565192 4.036586 8.690456 -2.413025 -9.633028 0.000000 0.000000 0.000000 -1.023700 -1.985325 -1.180765 -25.744423 -6.849707 -0.626862 3.307905 -21.434853 -2.228286 0.000000 0.000000 0.000000 -15.392789 -1.894134 -4.583248 -3.483461 17.131199 -0.136107 -39.932364 47.884636 -4.734613 0.000000 0.000000 0.000000 
